{"title":"Suicide Squad 2016 HDCam.h264","uid":15582256,"size":784661344,"categoryP":"video","categoryS":"movies","magnet":"?xt=urn:btih:6f1bfb69c83cb9a6cc954f1009c8f86f3c1a1c90&amp;dn=Suicide+Squad+2016+HDCam.h264&amp;tr=udp%3A%2F%2Ftracker.leechers-paradise.org%3A6969&amp;tr=udp%3A%2F%2Fzer0day.ch%3A1337&amp;tr=udp%3A%2F%2Fopen.demonii.com%3A1337&amp;tr=udp%3A%2F%2Ftracker.coppersurfer.tk%3A6969&amp;tr=udp%3A%2F%2Fexodus.desync.com%3A6969","seeders":5,"leechers":3,"uploader":"xxTheOnexx","files":15,"time":1471425088,"description":"Suicide Squad (2016)\r\n\r\n\r\nBig shout out to ExtraTorrent for the original upload. I denoised, added some color \r\nand sharpened the the picture up. Hope you enjoy. \r\n\r\n\r\n&gt;&gt;&gt;&gt;&gt;&gt;&gt;&gt;&gt;&gt;http://postimg.org/gallery/o320tud6/&lt;&lt;&lt;&lt;&lt;&lt;&lt;&lt;&lt;\r\n\r\n\r\n\r\n\r\n\r\nCodec ID                  : mp42\r\nFile size                 : 746 MiB\r\nDuration                  : 1h 53mn\r\nOverall bit rate mode     : Variable\r\nOverall bit rate          : 918 Kbps\r\n\r\n\r\nVideo\r\n-----\r\nID                        : 1\r\nFormat                    : AVC\r\nFormat/Info               : Advanced Video Codec\r\nFormat profile            :   \r\nFormat settings, CABAC    : Yes\r\nFormat settings, ReFrames : 3 frames\r\nCodec ID                  : avc1\r\nCodec ID/Info             : Advanced Video Coding\r\nDuration                  : 1h 53mn\r\nBit rate                  : 785 Kbps\r\nWidth                     : 720 pixels\r\nHeight                    : 320 pixels\r\nDisplay aspect ratio      : 2.25:1\r\nFrame rate mode           : Variable\r\nFrame rate                : 25.000 fps\r\nMinimum frame rate        : 25.000 fps\r\nMaximum frame rate        : 25.025 fps\r\nStandard                  : PAL\r\nColor space               : YUV\r\nChroma subsampling        : 4:2:0\r\nBit depth                 : 8 bits\r\nScan type                 : Progressive\r\nBits/(Pixel*Frame)        : 0.136\r\nStream size               : 638 MiB (85%)\r\nLanguage                  : English\r\n\r\n\r\n\r\nAudio\r\n-----\r\nID                        : 2\r\nFormat                    : AAC\r\nFormat/Info               : Advanced Audio Codec\r\nFormat profile            : LC\r\nCodec ID                  : 40\r\nDuration                  : 1h 53mn\r\nBit rate mode             : Variable\r\nBit rate                  : 125 Kbps\r\nMaximum bit rate          : 211 Kbps\r\nChannel(s)                : 2 channels\r\nChannel positions         : Front: L R\r\nSampling rate             : 48.0 KHz\r\nCompression mode          : Lossy\r\nStream size               : 102 MiB (14%)\r\nLanguage                  : English","torrent":{"xt":"urn:btih:6f1bfb69c83cb9a6cc954f1009c8f86f3c1a1c90","amp;dn":"Suicide+Squad+2016+HDCam.h264","amp;tr":["udp%3A%2F%2Ftracker.leechers-paradise.org%3A6969","udp%3A%2F%2Fzer0day.ch%3A1337","udp%3A%2F%2Fopen.demonii.com%3A1337","udp%3A%2F%2Ftracker.coppersurfer.tk%3A6969","udp%3A%2F%2Fexodus.desync.com%3A6969"],"infoHash":"6f1bfb69c83cb9a6cc954f1009c8f86f3c1a1c90","infoHashBuffer":{"type":"Buffer","data":[111,27,251,105,200,60,185,166,204,149,79,16,9,200,248,111,60,26,28,144]},"announce":[],"urlList":[]}}